<?xml version="1.0" encoding="UTF-8" standalone="no"?>
<svg
   xmlns:dc="http://purl.org/dc/elements/1.1/"
   xmlns:cc="http://creativecommons.org/ns#"
   xmlns:rdf="http://www.w3.org/1999/02/22-rdf-syntax-ns#"
   xmlns:svg="http://www.w3.org/2000/svg"
   xmlns="http://www.w3.org/2000/svg"
   xmlns:sodipodi="http://sodipodi.sourceforge.net/DTD/sodipodi-0.dtd"
   xmlns:inkscape="http://www.inkscape.org/namespaces/inkscape"
   contentScriptType="application/ecmascript"
   contentStyleType="text/css"
   height="148mm"
   preserveAspectRatio="none"
   version="1.1"
   viewBox="0 0 793.70076 559.37006"
   width="210mm"
   zoomAndPan="magnify"
   id="svg117"
   sodipodi:docname="structures.svg"
   inkscape:version="0.92.4 (unknown)">
  <metadata
     id="metadata121">
    <rdf:RDF>
      <cc:Work
         rdf:about="">
        <dc:format>image/svg+xml</dc:format>
        <dc:type
           rdf:resource="http://purl.org/dc/dcmitype/StillImage" />
        <dc:title />
      </cc:Work>
    </rdf:RDF>
  </metadata>
  <sodipodi:namedview
     pagecolor="#ffffff"
     bordercolor="#666666"
     borderopacity="1"
     objecttolerance="10"
     gridtolerance="10"
     guidetolerance="10"
     inkscape:pageopacity="0"
     inkscape:pageshadow="2"
     inkscape:window-width="1920"
     inkscape:window-height="1017"
     id="namedview119"
     showgrid="false"
     showguides="true"
     inkscape:guide-bbox="true"
     inkscape:zoom="1.7992151"
     inkscape:cx="622.25411"
     inkscape:cy="463.1865"
     inkscape:window-x="0"
     inkscape:window-y="0"
     inkscape:window-maximized="1"
     inkscape:current-layer="g115"
     units="mm" />
  <defs
     id="defs11">
    <filter
       height="3"
       id="f1iiorrr5gacva"
       width="3"
       x="-1"
       y="-1">
      <feGaussianBlur
         result="blurOut"
         stdDeviation="2.0"
         id="feGaussianBlur2" />
      <feColorMatrix
         in="blurOut"
         result="blurOut2"
         type="matrix"
         values="0 0 0 0 0 0 0 0 0 0 0 0 0 0 0 0 0 0 .4 0"
         id="feColorMatrix4" />
      <feOffset
         dx="4.0"
         dy="4.0"
         in="blurOut2"
         result="blurOut3"
         id="feOffset6" />
      <feBlend
         in="SourceGraphic"
         in2="blurOut3"
         mode="normal"
         id="feBlend8" />
    </filter>
  </defs>
  <g
     id="g115"
     transform="translate(0,188.3701)">
    <path
       d="m 349.79055,5.83342 c 19.84816,22.69085 45.60222,52.13366 63.05295,72.0838"
       id="AbstractStructure&lt;-BaseStructure"
       style="fill:none;stroke:#a80036;stroke-width:0.72306967"
       inkscape:connector-curvature="0" />
    <path
       d="m 556.511,143.03414 c -30.4762,-14.1607 -75.399,-35.0339 -110.4501,-51.3203"
       id="Structure-&gt;BaseStructure"
       style="fill:none;stroke:#a80036;stroke-width:1"
       inkscape:connector-curvature="0" />
    <path
       d="m 244.79573,139.9902 c 10.24501,-6.53884 24.35705,-15.5459 37.15269,-23.71275"
       id="StructureVoid-&gt;BaseStructure-7"
       style="fill:none;stroke:#a80036;stroke-width:1"
       inkscape:connector-curvature="0" />
    <!--MD5=[f0f6de1d2713e232fb8cff0073b7858d]
class BaseStructure-->
    <rect
       height="32"
       id="BaseStructure"
       style="fill:#fefece;stroke:#a80036;stroke-width:1.5;filter:url(#f1iiorrr5gacva)"
       width="130"
       x="322"
       y="49" />
    <circle
       cx="337"
       cy="65"
       style="fill:#add1b2;stroke:#a80036;stroke-width:1"
       id="ellipse14"
       r="11" />
    <path
       d="m 339.9688,70.6406 q -0.5782,0.2969 -1.2188,0.4453 -0.6406,0.1485 -1.3437,0.1485 -2.5,0 -3.8204,-1.6485 -1.3203,-1.6484 -1.3203,-4.7734 0,-3.125 1.3203,-4.7812 1.3204,-1.6563 3.8204,-1.6563 0.7031,0 1.3515,0.1563 0.6485,0.1562 1.211,0.4531 v 2.7187 q -0.625,-0.5781 -1.2188,-0.8515 -0.5937,-0.2735 -1.2187,-0.2735 -1.3438,0 -2.0313,1.0703 -0.6875,1.0704 -0.6875,3.1641 0,2.0938 0.6875,3.1641 0.6875,1.0703 2.0313,1.0703 0.625,0 1.2187,-0.2735 0.5938,-0.2734 1.2188,-0.8515 z"
       id="path16"
       inkscape:connector-curvature="0" />
    <text
       font-size="12"
       lengthAdjust="spacingAndGlyphs"
       textLength="90"
       x="327"
       y="147.1543"
       id="text18"
       style="font-size:12px;font-family:sans-serif;fill:#000000"
       transform="translate(28,-78)">BaseStructure</text>
    <!--MD5=[e78d3bd29d68b8fbdb4aae8710e3db25]
class Simulator-->
    <rect
       height="32"
       id="Simulator"
       style="fill:#fefece;stroke:#a80036;stroke-width:1.5;filter:url(#f1iiorrr5gacva)"
       width="99"
       x="187.5"
       y="49" />
    <circle
       cx="202.5"
       cy="65"
       style="fill:#add1b2;stroke:#a80036;stroke-width:1"
       id="ellipse21"
       r="11" />
    <path
       d="m 205.4688,70.6406 q -0.5782,0.2969 -1.2188,0.4453 -0.6406,0.1485 -1.3437,0.1485 -2.5,0 -3.8204,-1.6485 -1.3203,-1.6484 -1.3203,-4.7734 0,-3.125 1.3203,-4.7812 1.3204,-1.6563 3.8204,-1.6563 0.7031,0 1.3515,0.1563 0.6485,0.1562 1.211,0.4531 v 2.7187 q -0.625,-0.5781 -1.2188,-0.8515 -0.5937,-0.2735 -1.2187,-0.2735 -1.3438,0 -2.0313,1.0703 -0.6875,1.0704 -0.6875,3.1641 0,2.0938 0.6875,3.1641 0.6875,1.0703 2.0313,1.0703 0.625,0 1.2187,-0.2735 0.5938,-0.2734 1.2188,-0.8515 z"
       id="path23"
       inkscape:connector-curvature="0" />
    <text
       font-size="12"
       lengthAdjust="spacingAndGlyphs"
       textLength="59"
       x="192.5"
       y="147.1543"
       id="text25"
       style="font-size:12px;font-family:sans-serif;fill:#000000"
       transform="translate(28,-78)">Simulator</text>
    <!--MD5=[f6e43e0029f2d05fde80c571da6d45a4]
class StructureVoid-->
    <rect
       height="32"
       id="StructureVoid"
       style="fill:#fefece;stroke:#a80036;stroke-width:1.5;filter:url(#f1iiorrr5gacva)"
       width="136"
       x="122"
       y="137" />
    <circle
       cx="137"
       cy="153"
       style="fill:#add1b2;stroke:#a80036;stroke-width:1"
       id="ellipse28"
       r="11" />
    <path
       d="m 139.9688,158.6406 q -0.5782,0.2969 -1.2188,0.4453 -0.6406,0.1485 -1.3437,0.1485 -2.5,0 -3.8204,-1.6485 -1.3203,-1.6484 -1.3203,-4.7734 0,-3.125 1.3203,-4.7812 1.3204,-1.6563 3.8204,-1.6563 0.7031,0 1.3515,0.1563 0.6485,0.1562 1.211,0.4531 v 2.7187 q -0.625,-0.5781 -1.2188,-0.8515 -0.5937,-0.2735 -1.2187,-0.2735 -1.3438,0 -2.0313,1.0703 -0.6875,1.0704 -0.6875,3.1641 0,2.0938 0.6875,3.1641 0.6875,1.0703 2.0313,1.0703 0.625,0 1.2187,-0.2735 0.5938,-0.2734 1.2188,-0.8515 z"
       id="path30"
       inkscape:connector-curvature="0" />
    <text
       font-size="12"
       lengthAdjust="spacingAndGlyphs"
       textLength="59"
       x="287"
       y="55.154301"
       id="text32"
       style="font-size:12px;font-family:sans-serif;fill:#000000"
       transform="translate(-132,102)">Structure</text>
    <rect
       height="23.9688"
       style="fill:#ffffff;stroke:#000000;stroke-width:1;stroke-dasharray:2, 2"
       width="35"
       x="226"
       y="134"
       id="rect34" />
    <text
       font-size="12"
       font-style="italic"
       lengthAdjust="spacingAndGlyphs"
       textLength="25"
       x="363"
       y="48.138699"
       id="text36"
       style="font-style:italic;font-size:12px;font-family:sans-serif;fill:#000000"
       transform="translate(-132,102)">void</text>
    <path
       d="m 605,91.0252 c 0,13.69083 0,33.27055 0,49.74419"
       id="Structure-&gt;FieldsPointer"
       style="fill:none;stroke:#a80036;stroke-width:1.03221893"
       inkscape:connector-curvature="0" />
    <!--MD5=[3915787db80ab162e3259f8f86339844]
class Structure-->
    <rect
       height="32"
       id="Structure"
       style="fill:#fefece;stroke:#a80036;stroke-width:1.5;filter:url(#f1iiorrr5gacva)"
       width="263"
       x="413.5"
       y="137" />
    <circle
       cx="428.5"
       cy="153"
       style="fill:#add1b2;stroke:#a80036;stroke-width:1"
       id="ellipse39"
       r="11" />
    <path
       d="m 431.4688,158.6406 q -0.5782,0.2969 -1.2188,0.4453 -0.6406,0.1485 -1.3437,0.1485 -2.5,0 -3.8204,-1.6485 -1.3203,-1.6484 -1.3203,-4.7734 0,-3.125 1.3203,-4.7812 1.3204,-1.6563 3.8204,-1.6563 0.7031,0 1.3515,0.1563 0.6485,0.1562 1.211,0.4531 v 2.7187 q -0.625,-0.5781 -1.2188,-0.8515 -0.5937,-0.2735 -1.2187,-0.2735 -1.3438,0 -2.0313,1.0703 -0.6875,1.0704 -0.6875,3.1641 0,2.0938 0.6875,3.1641 0.6875,1.0703 2.0313,1.0703 0.625,0 1.2187,-0.2735 0.5938,-0.2734 1.2188,-0.8515 z"
       id="path41"
       inkscape:connector-curvature="0" />
    <text
       font-size="12"
       lengthAdjust="spacingAndGlyphs"
       textLength="59"
       x="458.5"
       y="55.154301"
       id="text43"
       transform="translate(-12,102)"
       style="font-size:12px;font-family:sans-serif;fill:#000000">Structure</text>
    <rect
       height="23.9688"
       style="fill:#ffffff;stroke:#000000;stroke-width:1;stroke-dasharray:2, 2"
       width="162"
       x="517.5"
       y="134"
       id="rect45" />
    <text
       font-size="12"
       font-style="italic"
       lengthAdjust="spacingAndGlyphs"
       textLength="152"
       x="534.5"
       y="48.138699"
       id="text47"
       transform="translate(-12,102)"
       style="font-style:italic;font-size:12px;font-family:sans-serif;fill:#000000">KeyNameT, ValueNameT</text>
    <!--MD5=[2507fd09791267e08bc46806a3c1e11d]
class Fields-->
    <rect
       height="32"
       id="Fields"
       style="fill:#fefece;stroke:#a80036;stroke-width:1.5;filter:url(#f1iiorrr5gacva)"
       width="76"
       x="540"
       y="-141"
       transform="matrix(1,0,0,-1,8,-152)" />
    <circle
       cx="563"
       cy="27"
       style="fill:#add1b2;stroke:#a80036;stroke-width:1"
       id="ellipse50"
       r="11"
       transform="scale(1,-1)" />
    <path
       d="m 565.9688,-21.3594 q -0.5782,0.2969 -1.2188,0.4453 -0.6406,0.1485 -1.3437,0.1485 -2.5,0 -3.8204,-1.6485 -1.3203,-1.6484 -1.3203,-4.7734 0,-3.125 1.3203,-4.7812 1.3204,-1.6563 3.8204,-1.6563 0.7031,0 1.3515,0.1563 0.6485,0.1562 1.211,0.4531 v 2.7187 q -0.625,-0.5781 -1.2188,-0.8515 -0.5937,-0.2735 -1.2187,-0.2735 -1.3438,0 -2.0313,1.0703 -0.6875,1.0704 -0.6875,3.1641 0,2.0938 0.6875,3.1641 0.6875,1.0703 2.0313,1.0703 0.625,0 1.2187,-0.2735 0.5938,-0.2734 1.2188,-0.8515 z"
       id="path52"
       inkscape:connector-curvature="0" />
    <text
       font-size="12"
       lengthAdjust="spacingAndGlyphs"
       textLength="36"
       x="533"
       y="239.1543"
       id="text54"
       transform="translate(48,-262)"
       style="font-size:12px;font-family:sans-serif;fill:#000000">Fields</text>
    <!--MD5=[de341305e0aa6575d6c08b1fb518943c]
class AbstractFields-->
    <rect
       height="32"
       id="AbstractFields"
       style="fill:#fefece;stroke:#a80036;stroke-width:1.5;filter:url(#f1iiorrr5gacva)"
       width="129"
       x="532.5"
       y="-41"
       transform="matrix(1,0,0,-1,8,-152)" />
    <text
       font-size="12"
       lengthAdjust="spacingAndGlyphs"
       textLength="89"
       x="525.5"
       y="339.1543"
       id="text61"
       transform="translate(48,-462)"
       style="font-size:12px;font-family:sans-serif;fill:#000000">AbstractFields</text>
    <!--MD5=[762030015532a60126a75955e20e3223]
class FieldsPointer-->
    <rect
       height="32"
       id="FieldsPointer"
       style="fill:#fefece;stroke:#a80036;stroke-width:1.5;filter:url(#f1iiorrr5gacva)"
       width="121"
       x="536.5"
       y="-233"
       transform="matrix(1,0,0,-1,8,-152)" />
    <circle
       cx="559.5"
       cy="-65"
       style="fill:#add1b2;stroke:#a80036;stroke-width:1"
       id="ellipse64"
       r="11"
       transform="scale(1,-1)" />
    <path
       d="m 562.4688,70.6406 q -0.5782,0.2969 -1.2188,0.4453 -0.6406,0.1485 -1.3437,0.1485 -2.5,0 -3.8204,-1.6485 -1.3203,-1.6484 -1.3203,-4.7734 0,-3.125 1.3203,-4.7812 1.3204,-1.6563 3.8204,-1.6563 0.7031,0 1.3515,0.1563 0.6485,0.1562 1.211,0.4531 v 2.7187 q -0.625,-0.5781 -1.2188,-0.8515 -0.5937,-0.2735 -1.2187,-0.2735 -1.3438,0 -2.0313,1.0703 -0.6875,1.0704 -0.6875,3.1641 0,2.0938 0.6875,3.1641 0.6875,1.0703 2.0313,1.0703 0.625,0 1.2187,-0.2735 0.5938,-0.2734 1.2188,-0.8515 z"
       id="path66"
       inkscape:connector-curvature="0" />
    <text
       font-size="12"
       lengthAdjust="spacingAndGlyphs"
       textLength="81"
       x="529.5"
       y="147.1543"
       id="text68"
       transform="translate(48,-78)"
       style="font-size:12px;font-family:sans-serif;fill:#000000">FieldsPointer</text>
    <!--MD5=[749e37c81bcf5b2d997b4552884dd7d2]
class AbstractStructure-->
    <rect
       height="32"
       id="AbstractStructure"
       style="fill:#fefece;stroke:#a80036;stroke-width:1.5;filter:url(#f1iiorrr5gacva)"
       width="151"
       x="235.5"
       y="-43" />
    <circle
       cx="250.5"
       cy="-27"
       style="fill:#a9dcdf;stroke:#a80036;stroke-width:1"
       id="ellipse71"
       r="11" />
    <path
       d="m 250.6094,-31.6562 -1.1563,5.0781 h 2.3282 z m -1.4844,-2.2344 h 2.9844 l 3.3594,12.3906 h -2.4532 l -0.7656,-3.0625 h -3.2812 l -0.75,3.0625 h -2.4375 z"
       id="path73"
       inkscape:connector-curvature="0" />
    <text
       font-size="12"
       font-style="italic"
       lengthAdjust="spacingAndGlyphs"
       textLength="111"
       x="100.5"
       y="55.154301"
       id="text75"
       transform="translate(168,-78)"
       style="font-style:italic;font-size:12px;font-family:sans-serif;fill:#000000">AbstractStructure</text>
    <path
       d="m 124,261 v 48.2656 H 530 V 271 L 520,261 H 331 L 327,109.0396 323,261 H 124"
       style="fill:#fbfb77;stroke:#a80036;stroke-width:1;filter:url(#f1iiorrr5gacva)"
       id="path77"
       inkscape:connector-curvature="0" />
    <path
       d="m 520,261 v 10 h 10 l -10,-10"
       style="fill:#fbfb77;stroke:#a80036;stroke-width:1"
       id="path79"
       inkscape:connector-curvature="0" />
    <text
       font-size="13"
       lengthAdjust="spacingAndGlyphs"
       textLength="373"
       x="16"
       y="332.06689"
       id="text81"
       transform="translate(118,-50)"
       style="font-size:13px;font-family:sans-serif;fill:#000000">Только в случае компиляции с флагом SPU_SIMULATOR</text>
    <text
       font-size="13"
       lengthAdjust="spacingAndGlyphs"
       textLength="182"
       x="20"
       y="347.19971"
       id="text83"
       transform="translate(118,-50)"
       style="font-size:13px;font-family:sans-serif;fill:#000000">(подменяет BaseStructure)</text>
    <!--MD5=[f8b1b0566c39190c8c013b1953acace1]
reverse link AbstractStructure to BaseStructure-->
    <polygon
       points="180.6243,67.0252 201.7679,68.4223 196.2818,81.3026 "
       style="fill:none;stroke:#a80036;stroke-width:1"
       id="polygon86"
       transform="rotate(25.752846,425.53308,369.98549)" />
    <!--MD5=[3abae8ece88ed7592b9c9282f0a9c143]
reverse link AbstractStructure to Simulator-->
    <!--MD5=[bf35990e0341ff170f5a45ad3bc1a66d]
link StructureVoid to BaseStructure-->
    <path
       d="m 281.94842,116.27745 c 10.24502,-6.53884 24.35706,-15.54589 37.1527,-23.71275"
       id="StructureVoid-&gt;BaseStructure"
       style="fill:none;stroke:#a80036;stroke-width:1"
       inkscape:connector-curvature="0" />
    <polygon
       points="352.5048,126.8498 338.5477,110.9061 351.5366,105.6823 "
       style="fill:none;stroke:#a80036;stroke-width:1"
       id="polygon92"
       transform="matrix(0.81367749,0.58131656,0.58131656,-0.81367749,-24.26265,-20.11612)" />
    <!--MD5=[3272c5c16cdebddff4f5b50632128da5]
link StructureVoid to Simulator-->
    <path
       d="m 163.50807,137.28428 c 14.4295,-11.85255 35.12899,-28.85535 52.42356,-43.061329"
       id="StructureVoid-&gt;Simulator"
       style="fill:none;stroke:#a80036;stroke-width:0.90905714;stroke-dasharray:6.36340001, 6.36340001"
       inkscape:connector-curvature="0" />
    <polygon
       points="248.766,119.6508 228.8367,126.8498 239.9268,108.794 "
       style="fill:none;stroke:#a80036;stroke-width:1"
       id="polygon95"
       transform="rotate(-180,230.14778,104.22143)" />
    <!--MD5=[15c235e4b1f9421d461303454bcab1d4]
link Structure to BaseStructure-->
    <polygon
       points="414.8455,124.7703 393.7581,126.8498 408.9461,112.0739 "
       style="fill:none;stroke:#a80036;stroke-width:1"
       id="polygon98"
       transform="matrix(1,0,0,-1,34,210.05934)" />
    <!--MD5=[7235b6c8690a30d8496216866fa9b935]
link Structure to Simulator-->
    <path
       d="M 467.29933,136.78974 C 401.9087,125.37808 319.06702,109.75294 286.19181,98.604028 278.78374,96.091721 271.1618,92.915524 263.8526,89.536937"
       id="Structure-&gt;Simulator"
       style="fill:none;stroke:#a80036;stroke-width:0.94832945;stroke-dasharray:6.63830614, 6.63830614"
       inkscape:connector-curvature="0" />
    <polygon
       points="257.0113,123.9882 236.0252,126.9178 250.604,111.5405 "
       style="fill:none;stroke:#a80036;stroke-width:1"
       id="polygon101"
       transform="matrix(1,0,0,-1,10,208.1195)" />
    <!--MD5=[b05fe881b5d6de25640f5120eedaeb9d]
link Structure to FieldsPointer-->
    <polygon
       points="557,126.8498 561,120.8498 557,114.8498 553,120.8498 "
       style="fill:#a80036;stroke:#a80036;stroke-width:1"
       id="polygon104"
       transform="matrix(1,0,0,-1,48,208)" />
    <!--MD5=[918f9234f8903f12ba824797c373ec0a]
link Fields to AbstractFields-->
    <path
       d="m 589.0527,-43.0667 c 2.4653,-12.9753 6.0274,-31.7232 9.16,-48.2104"
       id="Fields-&gt;AbstractFields"
       style="fill:none;stroke:#a80036;stroke-width:1"
       inkscape:connector-curvature="0" />
    <polygon
       points="557.0986,298.018 553.9549,318.9731 543.3446,300.6313 "
       style="fill:none;stroke:#a80036;stroke-width:1"
       id="polygon107"
       transform="matrix(1,0,0,-1,48,208)" />
    <!--MD5=[d799f36da4ffe1fed7c38d17a9348a1c]
link FieldsPointer to AbstractFields-->
    <path
       d="M 615.5234,48.9071 C 624.5657,34.0516 636.9241,11.0221 642,-11 c 6.4628,-28.0397 -4.409,-59.0583 -16.0078,-81.9597"
       id="FieldsPointer-&gt;AbstractFields"
       style="fill:none;stroke:#a80036;stroke-width:1"
       inkscape:connector-curvature="0" />
    <polygon
       points="583.9205,304.6996 568.0296,318.7168 571.7108,297.8493 "
       style="fill:none;stroke:#a80036;stroke-width:1"
       id="polygon110"
       transform="matrix(1,0,0,-1,48,208)" />
    <!--MD5=[b112bfa611b3ce9b788287b7f9776a20]
link FieldsPointer to Fields-->
    <path
       d="m 601.6905,48.9748 c -2.6537,-12.8495 -6.4489,-31.226 -9.642,-46.6873"
       id="FieldsPointer-&gt;Fields"
       style="fill:none;stroke:#a80036;stroke-width:1"
       inkscape:connector-curvature="0" />
    <polygon
       points="541.3354,218.8498 546.4663,213.7828 543.7624,207.0978 538.6316,212.1648 "
       style="fill:#a80036;stroke:#a80036;stroke-width:1"
       id="polygon113"
       transform="matrix(1,0,0,-1,48,208)" />
    <!--MD5=[5537bfac4a42d38f97d5161d1dda3b3e]
@startuml

skinparam Padding 4

abstract class AbstractStructure

together {
  class BaseStructure
  class Simulator
}

together {
  class StructureVoid as "Structure<void>"
  class Structure     as "Structure<KeyNameT, ValueNameT>"
}
  
together {
  class Fields
  class AbstractFields
  class FieldsPointer
}

note "Только в случае компиляции с флагом SPU_SIMULATOR \n (подменяет BaseStructure)" as NoteSimulator
Simulator ... NoteSimulator

hide members

AbstractStructure <|- - BaseStructure
AbstractStructure <|- - Simulator

StructureVoid - -|> BaseStructure
StructureVoid ..|> Simulator

Structure - -|> BaseStructure
Structure ..|> Simulator

Structure - -* FieldsPointer

Fields - -|> AbstractFields
FieldsPointer - -|> AbstractFields
FieldsPointer - -* Fields

@enduml

PlantUML version 1.2019.12(Sun Nov 03 13:24:54 MSK 2019)
(GPL source distribution)
Java Runtime: OpenJDK Runtime Environment
JVM: OpenJDK 64-Bit Server VM
Java Version: 1.8.0_232-b09
Operating System: Linux
Default Encoding: UTF-8
Language: ru
Country: RU
-->
    <polygon
       points="180.6243,67.0252 201.7679,68.4223 196.2818,81.3026 "
       style="fill:none;stroke:#a80036;stroke-width:1"
       id="polygon86-6"
       transform="matrix(-0.90067666,0.43449,0.43449,0.90067666,422.72168,-149.52278)" />
    <path
       d="M 275.98605,4.1488068 C 262.40649,18.335733 244.78627,36.744165 232.84696,49.217526"
       id="AbstractStructure&lt;-BaseStructure-3"
       style="fill:none;stroke:#a80036;stroke-width:0.47291353"
       inkscape:connector-curvature="0" />
    <circle
       cx="554.93573"
       cy="-127.0559"
       style="fill:#a9dcdf;stroke:#a80036;stroke-width:1"
       id="ellipse71-6"
       r="11" />
    <path
       d="m 555.04512,-131.71211 -1.1563,5.0781 h 2.3282 z m -1.4844,-2.2344 h 2.9844 l 3.3594,12.3906 h -2.4532 l -0.7656,-3.0625 h -3.2812 l -0.75,3.0625 h -2.4375 z"
       id="path73-7"
       inkscape:connector-curvature="0" />
  </g>
</svg>
