<?xml version="1.0" encoding="UTF-8" standalone="no"?><svg xmlns="http://www.w3.org/2000/svg" xmlns:xlink="http://www.w3.org/1999/xlink" contentScriptType="application/ecmascript" contentStyleType="text/css" height="340px" preserveAspectRatio="none" style="width:896px;height:340px;" version="1.1" viewBox="0 0 896 340" width="896px" zoomAndPan="magnify"><defs><filter height="300%" id="f17xsnf7sio425" width="300%" x="-1" y="-1"><feGaussianBlur result="blurOut" stdDeviation="2.0"/><feColorMatrix in="blurOut" result="blurOut2" type="matrix" values="0 0 0 0 0 0 0 0 0 0 0 0 0 0 0 0 0 0 .4 0"/><feOffset dx="4.0" dy="4.0" in="blurOut2" result="blurOut3"/><feBlend in="SourceGraphic" in2="blurOut3" mode="normal"/></filter></defs><g><!--class BaseStructure--><rect fill="#FEFECE" filter="url(#f17xsnf7sio425)" height="32" id="BaseStructure" style="stroke: #A80036; stroke-width: 1.5;" width="130" x="294" y="127"/><ellipse cx="309" cy="143" fill="#ADD1B2" rx="11" ry="11" style="stroke: #A80036; stroke-width: 1.0;"/><path d="M311.9688,148.6406 Q311.3906,148.9375 310.75,149.0859 Q310.1094,149.2344 309.4063,149.2344 Q306.9063,149.2344 305.5859,147.5859 Q304.2656,145.9375 304.2656,142.8125 Q304.2656,139.6875 305.5859,138.0313 Q306.9063,136.375 309.4063,136.375 Q310.1094,136.375 310.7578,136.5313 Q311.4063,136.6875 311.9688,136.9844 L311.9688,139.7031 Q311.3438,139.125 310.75,138.8516 Q310.1563,138.5781 309.5313,138.5781 Q308.1875,138.5781 307.5,139.6484 Q306.8125,140.7188 306.8125,142.8125 Q306.8125,144.9063 307.5,145.9766 Q308.1875,147.0469 309.5313,147.0469 Q310.1563,147.0469 310.75,146.7734 Q311.3438,146.5 311.9688,145.9219 L311.9688,148.6406 Z "/><text fill="#000000" font-family="sans-serif" font-size="12" lengthAdjust="spacingAndGlyphs" textLength="90" x="327" y="147.1543">BaseStructure</text><!--class Simulator--><rect fill="#FEFECE" filter="url(#f17xsnf7sio425)" height="32" id="Simulator" style="stroke: #A80036; stroke-width: 1.5;" width="99" x="159.5" y="127"/><ellipse cx="174.5" cy="143" fill="#ADD1B2" rx="11" ry="11" style="stroke: #A80036; stroke-width: 1.0;"/><path d="M177.4688,148.6406 Q176.8906,148.9375 176.25,149.0859 Q175.6094,149.2344 174.9063,149.2344 Q172.4063,149.2344 171.0859,147.5859 Q169.7656,145.9375 169.7656,142.8125 Q169.7656,139.6875 171.0859,138.0313 Q172.4063,136.375 174.9063,136.375 Q175.6094,136.375 176.2578,136.5313 Q176.9063,136.6875 177.4688,136.9844 L177.4688,139.7031 Q176.8438,139.125 176.25,138.8516 Q175.6563,138.5781 175.0313,138.5781 Q173.6875,138.5781 173,139.6484 Q172.3125,140.7188 172.3125,142.8125 Q172.3125,144.9063 173,145.9766 Q173.6875,147.0469 175.0313,147.0469 Q175.6563,147.0469 176.25,146.7734 Q176.8438,146.5 177.4688,145.9219 L177.4688,148.6406 Z "/><text fill="#000000" font-family="sans-serif" font-size="12" lengthAdjust="spacingAndGlyphs" textLength="59" x="192.5" y="147.1543">Simulator</text><!--class StructureVoid--><rect fill="#FEFECE" filter="url(#f17xsnf7sio425)" height="32" id="StructureVoid" style="stroke: #A80036; stroke-width: 1.5;" width="136" x="448" y="35"/><ellipse cx="463" cy="51" fill="#ADD1B2" rx="11" ry="11" style="stroke: #A80036; stroke-width: 1.0;"/><path d="M465.9688,56.6406 Q465.3906,56.9375 464.75,57.0859 Q464.1094,57.2344 463.4063,57.2344 Q460.9063,57.2344 459.5859,55.5859 Q458.2656,53.9375 458.2656,50.8125 Q458.2656,47.6875 459.5859,46.0313 Q460.9063,44.375 463.4063,44.375 Q464.1094,44.375 464.7578,44.5313 Q465.4063,44.6875 465.9688,44.9844 L465.9688,47.7031 Q465.3438,47.125 464.75,46.8516 Q464.1563,46.5781 463.5313,46.5781 Q462.1875,46.5781 461.5,47.6484 Q460.8125,48.7188 460.8125,50.8125 Q460.8125,52.9063 461.5,53.9766 Q462.1875,55.0469 463.5313,55.0469 Q464.1563,55.0469 464.75,54.7734 Q465.3438,54.5 465.9688,53.9219 L465.9688,56.6406 Z "/><text fill="#000000" font-family="sans-serif" font-size="12" lengthAdjust="spacingAndGlyphs" textLength="59" x="481" y="55.1543">Structure</text><rect fill="#FFFFFF" height="23.9688" style="stroke: #000000; stroke-width: 1.0; stroke-dasharray: 2.0,2.0;" width="35" x="552" y="32"/><text fill="#000000" font-family="sans-serif" font-size="12" font-style="italic" lengthAdjust="spacingAndGlyphs" textLength="25" x="557" y="48.1387">void</text><!--class Structure--><rect fill="#FEFECE" filter="url(#f17xsnf7sio425)" height="32" id="Structure" style="stroke: #A80036; stroke-width: 1.5;" width="263" x="619.5" y="35"/><ellipse cx="634.5" cy="51" fill="#ADD1B2" rx="11" ry="11" style="stroke: #A80036; stroke-width: 1.0;"/><path d="M637.4688,56.6406 Q636.8906,56.9375 636.25,57.0859 Q635.6094,57.2344 634.9063,57.2344 Q632.4063,57.2344 631.0859,55.5859 Q629.7656,53.9375 629.7656,50.8125 Q629.7656,47.6875 631.0859,46.0313 Q632.4063,44.375 634.9063,44.375 Q635.6094,44.375 636.2578,44.5313 Q636.9063,44.6875 637.4688,44.9844 L637.4688,47.7031 Q636.8438,47.125 636.25,46.8516 Q635.6563,46.5781 635.0313,46.5781 Q633.6875,46.5781 633,47.6484 Q632.3125,48.7188 632.3125,50.8125 Q632.3125,52.9063 633,53.9766 Q633.6875,55.0469 635.0313,55.0469 Q635.6563,55.0469 636.25,54.7734 Q636.8438,54.5 637.4688,53.9219 L637.4688,56.6406 Z "/><text fill="#000000" font-family="sans-serif" font-size="12" lengthAdjust="spacingAndGlyphs" textLength="59" x="652.5" y="55.1543">Structure</text><rect fill="#FFFFFF" height="23.9688" style="stroke: #000000; stroke-width: 1.0; stroke-dasharray: 2.0,2.0;" width="162" x="723.5" y="32"/><text fill="#000000" font-family="sans-serif" font-size="12" font-style="italic" lengthAdjust="spacingAndGlyphs" textLength="152" x="728.5" y="48.1387">KeyNameT, ValueNameT</text><!--class Fields--><rect fill="#FEFECE" filter="url(#f17xsnf7sio425)" height="32" id="Fields" style="stroke: #A80036; stroke-width: 1.5;" width="76" x="713" y="127"/><ellipse cx="728" cy="143" fill="#ADD1B2" rx="11" ry="11" style="stroke: #A80036; stroke-width: 1.0;"/><path d="M730.9688,148.6406 Q730.3906,148.9375 729.75,149.0859 Q729.1094,149.2344 728.4063,149.2344 Q725.9063,149.2344 724.5859,147.5859 Q723.2656,145.9375 723.2656,142.8125 Q723.2656,139.6875 724.5859,138.0313 Q725.9063,136.375 728.4063,136.375 Q729.1094,136.375 729.7578,136.5313 Q730.4063,136.6875 730.9688,136.9844 L730.9688,139.7031 Q730.3438,139.125 729.75,138.8516 Q729.1563,138.5781 728.5313,138.5781 Q727.1875,138.5781 726.5,139.6484 Q725.8125,140.7188 725.8125,142.8125 Q725.8125,144.9063 726.5,145.9766 Q727.1875,147.0469 728.5313,147.0469 Q729.1563,147.0469 729.75,146.7734 Q730.3438,146.5 730.9688,145.9219 L730.9688,148.6406 Z "/><text fill="#000000" font-family="sans-serif" font-size="12" lengthAdjust="spacingAndGlyphs" textLength="36" x="746" y="147.1543">Fields</text><!--class AbstractStructure--><rect fill="#FEFECE" filter="url(#f17xsnf7sio425)" height="32" id="AbstractStructure" style="stroke: #A80036; stroke-width: 1.5;" width="151" x="197.5" y="35"/><ellipse cx="212.5" cy="51" fill="#A9DCDF" rx="11" ry="11" style="stroke: #A80036; stroke-width: 1.0;"/><path d="M212.6094,46.3438 L211.4531,51.4219 L213.7813,51.4219 L212.6094,46.3438 Z M211.125,44.1094 L214.1094,44.1094 L217.4688,56.5 L215.0156,56.5 L214.25,53.4375 L210.9688,53.4375 L210.2188,56.5 L207.7813,56.5 L211.125,44.1094 Z "/><text fill="#000000" font-family="sans-serif" font-size="12" font-style="italic" lengthAdjust="spacingAndGlyphs" textLength="111" x="230.5" y="55.1543">AbstractStructure</text><path d="M6,280 L6,328.2656 A0,0 0 0 0 6,328.2656 L412,328.2656 A0,0 0 0 0 412,328.2656 L412,290 L402,280 L213,280 L209,159.0259 L205,280 L6,280 A0,0 0 0 0 6,280 " fill="#FBFB77" filter="url(#f17xsnf7sio425)" style="stroke: #A80036; stroke-width: 1.0;"/><path d="M402,280 L402,290 L412,290 L402,280 " fill="#FBFB77" style="stroke: #A80036; stroke-width: 1.0;"/><text fill="#000000" font-family="sans-serif" font-size="13" lengthAdjust="spacingAndGlyphs" textLength="373" x="16" y="301.0669">Только в случае компиляции с флагом SPU_SIMULATOR</text><text fill="#000000" font-family="sans-serif" font-size="13" lengthAdjust="spacingAndGlyphs" textLength="182" x="20" y="316.1997">(подменяет BaseStructure)</text><!--link AbstractStructure to BaseStructure--><path d="M302.0179,82.0424 C316.0666,97.0713 332.3498,114.4905 343.9031,126.8498 " fill="none" id="AbstractStructure-BaseStructure" style="stroke: #A80036; stroke-width: 1.0;"/><polygon fill="none" points="296.5241,86.4159,287.9801,67.0252,306.7515,76.8555,296.5241,86.4159" style="stroke: #A80036; stroke-width: 1.0;"/><!--link AbstractStructure to Simulator--><path d="M250.3994,83.4884 C240.1805,98.178 228.5583,114.8849 220.2349,126.8498 " fill="none" id="AbstractStructure-Simulator" style="stroke: #A80036; stroke-width: 1.0;"/><polygon fill="none" points="244.6844,79.4458,261.8521,67.0252,256.1771,87.4408,244.6844,79.4458" style="stroke: #A80036; stroke-width: 1.0;"/><!--link StructureVoid to BaseStructure--><path d="M488.6527,67.0252 C465.3822,80.6614 431.4894,100.5221 404.1929,116.5176 " fill="none" id="StructureVoid-BaseStructure" style="stroke: #A80036; stroke-width: 1.0;"/><polygon fill="none" points="407.3554,122.7776,386.5607,126.8498,400.2773,110.6987,407.3554,122.7776" style="stroke: #A80036; stroke-width: 1.0;"/><!--link StructureVoid to Simulator--><path d="M447.7504,62.727 C399.2295,72.1546 333.0013,87.2571 277,108 C269.5499,110.7595 261.8675,114.1412 254.4685,117.7033 " fill="none" id="StructureVoid-Simulator" style="stroke: #A80036; stroke-width: 1.0; stroke-dasharray: 7.0,7.0;"/><polygon fill="none" points="257.4216,124.0558,236.4321,126.961,251.0286,111.6006,257.4216,124.0558" style="stroke: #A80036; stroke-width: 1.0;"/><!--link Structure to BaseStructure--><path d="M619.4516,66.3408 C561.1362,75.2151 492.2369,88.5751 432,108 C423.4556,110.7553 414.6304,114.3147 406.1964,118.1052 " fill="none" id="Structure-BaseStructure" style="stroke: #A80036; stroke-width: 1.0;"/><polygon fill="none" points="409.1441,124.4551,388.087,126.8218,403.0722,111.8403,409.1441,124.4551" style="stroke: #A80036; stroke-width: 1.0;"/><!--link Structure to Simulator--><path d="M619.4831,65.6561 C484.9469,80.8257 293.3192,102.9964 277,108 C268.9024,110.4828 260.6183,113.9014 252.7433,117.6353 " fill="none" id="Structure-Simulator" style="stroke: #A80036; stroke-width: 1.0; stroke-dasharray: 7.0,7.0;"/><polygon fill="none" points="255.8513,123.9089,234.8762,126.9167,249.3975,111.4851,255.8513,123.9089" style="stroke: #A80036; stroke-width: 1.0;"/><!--link Structure to Fields--><path d="M751,67.0252 C751,79.8747 751,98.2512 751,113.7125 " fill="none" id="Structure-Fields" style="stroke: #A80036; stroke-width: 1.0;"/><polygon fill="#A80036" points="751,126.8498,755,120.8498,751,114.8498,747,120.8498,751,126.8498" style="stroke: #A80036; stroke-width: 1.0;"/><!--
@startuml

skinparam Padding 4

abstract class AbstractStructure

together {
  class BaseStructure
  class Simulator
}

together {
  class StructureVoid as "Structure<void>"
  class Structure     as "Structure<KeyNameT, ValueNameT>"
  class Fields
}

note "Только в случае компиляции с флагом SPU_SIMULATOR \n (подменяет BaseStructure)" as NoteSimulator
Simulator ... NoteSimulator

hide members

AbstractStructure <|- - BaseStructure
AbstractStructure <|- - Simulator

StructureVoid - -|> BaseStructure
StructureVoid ..|> Simulator

Structure - -|> BaseStructure
Structure ..|> Simulator

Structure - -* Fields

@enduml

PlantUML version 1.2019.02(Sat Mar 02 00:20:40 MSK 2019)
(GPL source distribution)
Java Runtime: OpenJDK Runtime Environment
JVM: OpenJDK 64-Bit Server VM
Java Version: 1.8.0_222-b10
Operating System: Linux
OS Version: 5.2.18-200.fc30.x86_64
Default Encoding: UTF-8
Language: ru
Country: RU
--></g></svg>