<!DOCTYPE svg PUBLIC "-//W3C//DTD SVG 1.1//EN" "http://www.w3.org/Graphics/SVG/1.1/DTD/svg11.dtd">
<svg xmlns="http://www.w3.org/2000/svg" xmlns:xlink="http://www.w3.org/1999/xlink" version="1.1" width="1159px" height="800px" viewBox="-0.5 -0.5 1159 800"><defs><clipPath id="mx-clip-4-31-332-54-0"><rect x="4" y="31" width="332" height="54"/></clipPath><clipPath id="mx-clip-4-93-332-262-0"><rect x="4" y="93" width="332" height="262"/></clipPath><clipPath id="mx-clip-387-31-442-34-0"><rect x="387" y="31" width="442" height="34"/></clipPath><clipPath id="mx-clip-387-73-442-282-0"><rect x="387" y="73" width="442" height="282"/></clipPath><clipPath id="mx-clip-4-416-382-24-0"><rect x="4" y="416" width="382" height="24"/></clipPath><clipPath id="mx-clip-4-448-382-212-0"><rect x="4" y="448" width="382" height="212"/></clipPath><clipPath id="mx-clip-424-416-402-26-0"><rect x="424" y="416" width="402" height="26"/></clipPath><clipPath id="mx-clip-424-450-402-110-0"><rect x="424" y="450" width="402" height="110"/></clipPath><clipPath id="mx-clip-424-627-202-26-0"><rect x="424" y="627" width="202" height="26"/></clipPath><clipPath id="mx-clip-424-661-202-140-0"><rect x="424" y="661" width="202" height="140"/></clipPath><clipPath id="mx-clip-684-647-252-26-0"><rect x="684" y="647" width="252" height="26"/></clipPath><clipPath id="mx-clip-684-681-252-100-0"><rect x="684" y="681" width="252" height="100"/></clipPath><clipPath id="mx-clip-852-318-302-26-0"><rect x="852" y="318" width="302" height="26"/></clipPath><clipPath id="mx-clip-852-352-302-210-0"><rect x="852" y="352" width="302" height="210"/></clipPath><clipPath id="mx-clip-927-119-152-54-0"><rect x="927" y="119" width="152" height="54"/></clipPath></defs><g><path d="M 0 26 L 0 0 L 340 0 L 340 26" fill="#ffffff" stroke="#000000" stroke-miterlimit="10" pointer-events="none"/><path d="M 0 26 L 0 350 L 340 350 L 340 26" fill="none" stroke="#000000" stroke-miterlimit="10" pointer-events="none"/><path d="M 0 26 L 340 26" fill="none" stroke="#000000" stroke-miterlimit="10" pointer-events="none"/><g fill="#000000" font-family="Helvetica" font-weight="bold" text-anchor="middle" font-size="12px"><text x="169.5" y="18.5">BaseStructure</text></g><g fill="#000000" font-family="Helvetica" clip-path="url(#mx-clip-4-31-332-54-0)" font-size="12px"><text x="5.5" y="43.5">- gsid_t gsid </text><text x="5.5" y="57.5">- Fileops fops; </text><text x="5.5" y="71.5">- u32 power;</text></g><path d="M 0 84 L 340 84" fill="none" stroke="#000000" stroke-miterlimit="10" pointer-events="none"/><g fill="#000000" font-family="Helvetica" clip-path="url(#mx-clip-4-93-332-262-0)" font-size="12px"><text x="5.5" y="105.5">+ explicit BaseStructure(bool initialize=true);</text><text x="5.5" y="119.5">+ virtual ~BaseStructure();</text><text x="5.5" y="133.5">+ gsid_t get_gsid();</text><text x="5.5" y="147.5">+ virtual u32 get_power();</text><text x="5.5" y="161.5">+ void init();</text><text x="5.5" y="175.5">+ virtual status_t insert(key_t key, value_t value, flags_t flags);</text><text x="5.5" y="189.5">+ status_t insert (InsertVector insert_vector, flags_t flags);</text><text x="5.5" y="203.5">+ virtual status_t del(key_t key, flags_t flags = NO_FLAGS);</text><text x="5.5" y="217.5">+ virtual pair_t search(key_t key, flags_t flags = P_FLAG);</text><text x="5.5" y="231.5">+ virtual pair_t min(flags_t flags = P_FLAG);</text><text x="5.5" y="245.5">+ virtual pair_t max(flags_t flags = P_FLAG);</text><text x="5.5" y="259.5">+ virtual pair_t next(key_t key, flags_t flags = P_FLAG);</text><text x="5.5" y="273.5">+ virtual pair_t prev(key_t key, flags_t flags = P_FLAG);</text><text x="5.5" y="287.5">+ virtual pair_t nsm(key_t key, flags_t flags = P_FLAG);</text><text x="5.5" y="301.5">+ virtual pair_t ngr(key_t key, flags_t flags = P_FLAG);</text><text x="5.5" y="315.5"># virtual adds_rslt_t createStructure();</text><text x="5.5" y="329.5"># virtual dels_rslt_t deleteStructure();</text></g><path d="M 383 26 L 383 0 L 833 0 L 833 26" fill="#ffffff" stroke="#000000" stroke-miterlimit="10" pointer-events="none"/><path d="M 383 26 L 383 350 L 833 350 L 833 26" fill="none" stroke="#000000" stroke-miterlimit="10" pointer-events="none"/><path d="M 383 26 L 833 26" fill="none" stroke="#000000" stroke-miterlimit="10" pointer-events="none"/><g fill="#000000" font-family="Helvetica" font-weight="bold" text-anchor="middle" font-size="12px"><text x="607.5" y="18.5">Structure&lt;typename NameT = void&gt;</text></g><g fill="#000000" font-family="Helvetica" clip-path="url(#mx-clip-387-31-442-34-0)" font-size="12px"><text x="388.5" y="43.5">- BaseStructure *base;</text><text x="388.5" y="57.5">- FieldsLength&lt;NameT&gt; key_len;</text></g><path d="M 383 64 L 833 64" fill="none" stroke="#000000" stroke-miterlimit="10" pointer-events="none"/><g fill="#000000" font-family="Helvetica" clip-path="url(#mx-clip-387-73-442-282-0)" font-size="12px"><text x="388.5" y="85.5">+ Structure(FieldsLength&lt;NameT&gt; key_length, BaseStructure *structure= nullptr)</text><text x="388.5" y="99.5">+ status_t insert(BitFlow key, BitFlow value, flags_t flags = NO_FLAGS)</text><text x="388.5" y="113.5">+ status_t insert(BitFlow key, BaseExternValue value, flags_t flags = NO_FLAGS) </text><text x="388.5" y="127.5">+ status_t insert(FieldsData&lt;NameT&gt; key, BaseExternValue value, flags_t flags)</text><text x="388.5" y="141.5">+ status_t insert(FieldsData&lt;NameT&gt; key_data, BitFlow value, flags_t flags)</text><text x="388.5" y="155.5">+ status_t del(BitFlow key, flags_t flags = NO_FLAGS)</text><text x="388.5" y="169.5">+ status_t del(FieldsData&lt;NameT&gt; key_data, flags_t flags = NO_FLAGS)</text><text x="388.5" y="183.5">+ pair_t search(BitFlow key, flags_t flags = P_FLAG)</text><text x="388.5" y="197.5">+ pair_t search(FieldsData&lt;NameT&gt; key_data, flags_t flags = P_FLAG)</text><text x="388.5" y="211.5">+ pair_t min(flags_t flags = P_FLAG)</text><text x="388.5" y="225.5">+ pair_t max(flags_t flags = P_FLAG)</text><text x="388.5" y="239.5">+ pair_t next(BitFlow key, flags_t flags = P_FLAG) </text><text x="388.5" y="253.5">+ pair_t next(FieldsData&lt;NameT&gt; key_data, flags_t flags = P_FLAG)</text><text x="388.5" y="267.5">+ pair_t prev(BitFlow key, flags_t flags = P_FLAG)</text><text x="388.5" y="281.5">+ pair_t prev(FieldsData&lt;NameT&gt; key_data, flags_t flags = P_FLAG)</text><text x="388.5" y="295.5">+ pair_t nsm(BitFlow key, flags_t flags = P_FLAG)</text><text x="388.5" y="309.5">+ pair_t nsm(FieldsData&lt;NameT&gt; key_data, flags_t flags = P_FLAG)</text><text x="388.5" y="323.5">+ pair_t ngr(BitFlow key, flags_t flags = P_FLAG)</text><text x="388.5" y="337.5">+ pair_t ngr(FieldsData&lt;NameT&gt; key_data, flags_t flags = P_FLAG)</text></g><path d="M 341 44 L 357.02 43.62" fill="none" stroke="#000000" stroke-miterlimit="10" pointer-events="none"/><path d="M 382.01 43.02 L 369.69 50.67 L 357.02 43.62 L 369.34 35.97 Z" fill="#000000" stroke="#000000" stroke-miterlimit="10" pointer-events="none"/><path d="M 0 411 L 0 385 L 390 385 L 390 411" fill="#ffffff" stroke="#000000" stroke-miterlimit="10" pointer-events="none"/><path d="M 0 411 L 0 655 L 390 655 L 390 411" fill="none" stroke="#000000" stroke-miterlimit="10" pointer-events="none"/><path d="M 0 411 L 390 411" fill="none" stroke="#000000" stroke-miterlimit="10" pointer-events="none"/><g fill="#000000" font-family="Helvetica" font-weight="bold" text-anchor="middle" font-size="12px"><text x="194.5" y="403.5">Simulator</text></g><g fill="#000000" font-family="Helvetica" clip-path="url(#mx-clip-4-416-382-24-0)" font-size="12px"><text x="5.5" y="428.5">- map&lt;key_t, value_t&gt; *_data = nullptr;</text></g><path d="M 0 439 L 390 439" fill="none" stroke="#000000" stroke-miterlimit="10" pointer-events="none"/><g fill="#000000" font-family="Helvetica" clip-path="url(#mx-clip-4-448-382-212-0)" font-size="12px"><text x="5.5" y="460.5">+ explicit Simulator(bool initialize=true);</text><text x="5.5" y="474.5">+ Simulator(Simulator &amp;obj);</text><text x="5.5" y="488.5">+ virtual u32 get_power() override;</text><text x="5.5" y="502.5">+ virtual status_t insert(key_t key, value_t value, flags_t flags) override;</text><text x="5.5" y="516.5">+ virtual status_t del(key_t key, flags_t flags = NO_FLAGS) override;</text><text x="5.5" y="530.5">+ virtual pair_t search(key_t key, flags_t flags = P_FLAG) override;</text><text x="5.5" y="544.5">+ virtual pair_t min(flags_t flags = P_FLAG) override;</text><text x="5.5" y="558.5">+ virtual pair_t max(flags_t flags = P_FLAG) override;</text><text x="5.5" y="572.5">+ virtual pair_t next(key_t key, flags_t flags = P_FLAG) override;</text><text x="5.5" y="586.5">+ virtual pair_t prev(key_t key, flags_t flags = P_FLAG) override;</text><text x="5.5" y="600.5">+ virtual pair_t nsm(key_t key, flags_t flags = P_FLAG) override;</text><text x="5.5" y="614.5">+ virtual pair_t ngr(key_t key, flags_t flags = P_FLAG) override;</text><text x="5.5" y="628.5"># virtual adds_rslt_t createStructure() override;</text><text x="5.5" y="642.5"># virtual dels_rslt_t deleteStructure() override;</text></g><path d="M 170 384 L 170 375.5 Q 170 367 170 365.56 L 170 364.12" fill="none" stroke="#000000" stroke-miterlimit="10" pointer-events="none"/><path d="M 170 351.12 L 176.5 364.12 L 163.5 364.12 Z" fill="none" stroke="#000000" stroke-miterlimit="10" pointer-events="none"/><path d="M 420 411 L 420 385 L 830 385 L 830 411" fill="#ffffff" stroke="#000000" stroke-miterlimit="10" pointer-events="none"/><path d="M 420 411 L 420 555 L 830 555 L 830 411" fill="none" stroke="#000000" stroke-miterlimit="10" pointer-events="none"/><path d="M 420 411 L 830 411" fill="none" stroke="#000000" stroke-miterlimit="10" pointer-events="none"/><g fill="#000000" font-family="Helvetica" font-weight="bold" text-anchor="middle" font-size="12px"><text x="624.5" y="403.5">BaseExternValue</text></g><g fill="#000000" font-family="Helvetica" clip-path="url(#mx-clip-424-416-402-26-0)" font-size="12px"><text x="425.5" y="428.5">- value_t _id;</text></g><path d="M 420 441 L 830 441" fill="none" stroke="#000000" stroke-miterlimit="10" pointer-events="none"/><g fill="#000000" font-family="Helvetica" clip-path="url(#mx-clip-424-450-402-110-0)" font-size="12px"><text x="425.5" y="462.5">+ BaseExternValue();</text><text x="425.5" y="476.5">+ explicit BaseExternValue(value_t id)</text><text x="425.5" y="490.5">+ value_t get_id();</text><text x="425.5" y="504.5">+ void set_id(value_t id);</text><text x="425.5" y="518.5">+ static void spu_insert(gsid_t gsid, key_t key, BaseExternValue &amp;value);</text><text x="425.5" y="532.5">+ static void spu_remove(gsid_t gsid, key_t key);</text><text x="425.5" y="546.5"># value_t get_next_id();</text></g><path d="M 420 622 L 420 596 L 630 596 L 630 622" fill="#ffffff" stroke="#000000" stroke-miterlimit="10" pointer-events="none"/><path d="M 420 622 L 420 796 L 630 796 L 630 622" fill="none" stroke="#000000" stroke-miterlimit="10" pointer-events="none"/><path d="M 420 622 L 630 622" fill="none" stroke="#000000" stroke-miterlimit="10" pointer-events="none"/><g fill="#000000" font-family="Helvetica" font-weight="bold" text-anchor="middle" font-size="12px"><text x="524.5" y="614.5">ExternValue&lt;class T&gt;</text></g><g fill="#000000" font-family="Helvetica" clip-path="url(#mx-clip-424-627-202-26-0)" font-size="12px"><text x="425.5" y="639.5">+ field: type</text></g><path d="M 420 652 L 630 652" fill="none" stroke="#000000" stroke-miterlimit="10" pointer-events="none"/><g fill="#000000" font-family="Helvetica" clip-path="url(#mx-clip-424-661-202-140-0)" font-size="12px"><text x="425.5" y="673.5">ExternValue()</text><text x="425.5" y="687.5">ExternValue(value_t id)</text><text x="425.5" y="701.5">virtual T &amp; get() = 0;</text><text x="425.5" y="715.5">virtual void set(T value) = 0;</text><text x="425.5" y="729.5">operator T()</text><text x="425.5" y="743.5">ExternValue&amp; operator&lt;&lt; (value_t id)</text><text x="425.5" y="757.5">ExternValue&amp; operator&lt;&lt; (pair_t pair)</text><text x="425.5" y="771.5">ExternValue&amp; operator&lt;&lt; (T value)</text><text x="425.5" y="785.5">T&amp; operator&gt;&gt; (T value)</text></g><path d="M 680 642 L 680 616 L 940 616 L 940 642" fill="#ffffff" stroke="#000000" stroke-miterlimit="10" pointer-events="none"/><path d="M 680 642 L 680 776 L 940 776 L 940 642" fill="none" stroke="#000000" stroke-miterlimit="10" pointer-events="none"/><path d="M 680 642 L 940 642" fill="none" stroke="#000000" stroke-miterlimit="10" pointer-events="none"/><g fill="#000000" font-family="Helvetica" font-weight="bold" text-anchor="middle" font-size="12px"><text x="809.5" y="634.5">HashMapExternValue&lt;class T&gt;</text></g><g fill="#000000" font-family="Helvetica" clip-path="url(#mx-clip-684-647-252-26-0)" font-size="12px"><text x="685.5" y="659.5">- static std::unordered_map&lt;value_t, T&gt; _data;</text></g><path d="M 680 672 L 940 672" fill="none" stroke="#000000" stroke-miterlimit="10" pointer-events="none"/><g fill="#000000" font-family="Helvetica" clip-path="url(#mx-clip-684-681-252-100-0)" font-size="12px"><text x="685.5" y="693.5">+ HashMapExternValue()</text><text x="685.5" y="707.5">+ HashMapExternValue(value_t id)</text><text x="685.5" y="721.5">+ HashMapExternValue(pair_t pair) </text><text x="685.5" y="735.5">+ HashMapExternValue(T value) </text><text x="685.5" y="749.5">+ T &amp; get() override </text><text x="685.5" y="763.5">+ void set(T value) override</text></g><path d="M 525 596 L 525 586 Q 525 576 525 573.06 L 525 570.12" fill="none" stroke="#000000" stroke-miterlimit="10" pointer-events="none"/><path d="M 525 557.12 L 531.5 570.12 L 518.5 570.12 Z" fill="none" stroke="#000000" stroke-miterlimit="10" pointer-events="none"/><path d="M 677 691.14 L 644.11 691.98" fill="none" stroke="#000000" stroke-miterlimit="10" stroke-dasharray="3 3" pointer-events="none"/><path d="M 631.12 692.31 L 643.95 685.48 L 644.28 698.48 Z" fill="none" stroke="#000000" stroke-miterlimit="10" pointer-events="none"/><path d="M 848 313 L 848 287 L 1158 287 L 1158 313" fill="#ffffff" stroke="#000000" stroke-miterlimit="10" pointer-events="none"/><path d="M 848 313 L 848 557 L 1158 557 L 1158 313" fill="none" stroke="#000000" stroke-miterlimit="10" pointer-events="none"/><path d="M 848 313 L 1158 313" fill="none" stroke="#000000" stroke-miterlimit="10" pointer-events="none"/><g fill="#000000" font-family="Helvetica" font-weight="bold" text-anchor="middle" font-size="12px"><text x="1002.5" y="305.5">BitFlow</text></g><g fill="#000000" font-family="Helvetica" clip-path="url(#mx-clip-852-318-302-26-0)" font-size="12px"><text x="853.5" y="330.5">- data_t d;</text></g><path d="M 848 343 L 1158 343" fill="none" stroke="#000000" stroke-miterlimit="10" pointer-events="none"/><g fill="#000000" font-family="Helvetica" clip-path="url(#mx-clip-852-352-302-210-0)" font-size="12px"><text x="853.5" y="364.5">+ operator data_t() const</text><text x="853.5" y="378.5">+ BitFlow()</text><text x="853.5" y="392.5">+ BitFlow(data_t data)</text><text x="853.5" y="406.5">+ template &lt;typename T&gt; BitFlow(T data)</text><text x="853.5" y="420.5">+ template &lt;typename T&gt; BitFlow&amp; set(T data)</text><text x="853.5" y="434.5">+ data_t get()</text><text x="853.5" y="448.5">+ template &lt;typename T&gt; void get(T &amp;value)</text><text x="853.5" y="462.5">+ BitFlow operator+(BitFlow&amp; other)</text><text x="853.5" y="476.5">+ BitFlow operator-(BitFlow&amp; other)</text><text x="853.5" y="490.5">+ u32&amp; operator[](u8 idx)</text><text x="853.5" y="504.5">+ const u32&amp; operator[](u8 idx) const</text><text x="853.5" y="518.5">+ template &lt;typename T&gt; operator T()</text><text x="853.5" y="532.5">+ template &lt;typename T&gt; BitFlow&amp; operator&lt;&lt; (T data) </text><text x="853.5" y="546.5">+ template &lt;typename T&gt; T&amp; operator&gt;&gt; (T value)</text></g><path d="M 923 114 L 923 88 L 1083 88 L 1083 114" fill="#ffffff" stroke="#000000" stroke-miterlimit="10" pointer-events="none"/><path d="M 923 114 L 923 168 L 1083 168 L 1083 114" fill="none" stroke="#000000" stroke-miterlimit="10" pointer-events="none"/><path d="M 923 114 L 1083 114" fill="none" stroke="#000000" stroke-miterlimit="10" pointer-events="none"/><g fill="#000000" font-family="Helvetica" font-weight="bold" text-anchor="middle" font-size="12px"><text x="1002.5" y="106.5">pair_containter</text></g><g fill="#000000" font-family="Helvetica" clip-path="url(#mx-clip-927-119-152-54-0)" font-size="12px"><text x="928.5" y="131.5">+ key_t    key;</text><text x="928.5" y="145.5">+ value_t  value;</text><text x="928.5" y="159.5">+ status_t status;</text></g></g></svg>